<?xml version="1.0" encoding="utf-8"?>
<!-- Generator: Adobe Illustrator 16.0.0, SVG Export Plug-In . SVG Version: 6.00 Build 0)  -->
<!DOCTYPE svg PUBLIC "-//W3C//DTD SVG 1.1//EN" "http://www.w3.org/Graphics/SVG/1.1/DTD/svg11.dtd">
<svg version="1.1" id="Layer_1" xmlns="http://www.w3.org/2000/svg" xmlns:xlink="http://www.w3.org/1999/xlink" x="0px" y="0px"
	 width="625.7px" height="166.5px" viewBox="0 0 625.7 166.5" enable-background="new 0 0 625.7 166.5" xml:space="preserve">
<g>
	<path fill="#660142" d="M270.423,106.145c0.644-1.071,1.287-1.647,1.93-1.729s1.206,0.094,1.688,0.523
		c0.589,0.481,1.125,1.178,1.608,2.09c-0.858,1.715-1.984,3.269-3.377,4.662c-1.233,1.18-2.868,2.238-4.904,3.177
		c-2.037,0.937-4.61,1.407-7.718,1.407c-1.984,0-4.114-0.256-6.392-0.765c-2.279-0.511-4.53-1.301-6.753-2.372
		c-2.225-1.072-4.355-2.426-6.392-4.06c-2.038-1.638-3.833-3.604-5.387-5.91c-1.555-2.305-2.801-4.933-3.738-7.879
		c-0.938-2.947-1.407-6.271-1.407-9.97c0-3.804,0.71-8.011,2.131-12.622c1.419-4.608,3.216-9.338,5.387-14.189
		c2.17-4.85,4.542-9.674,7.115-14.472c2.573-4.796,5.038-9.312,7.396-13.547c1.339-2.412,2.585-4.676,3.739-6.793
		c1.152-2.117,2.157-4.046,3.015-5.789c0.857-1.741,1.54-3.242,2.05-4.502c0.509-1.259,0.764-2.211,0.764-2.854
		c0-0.911-0.711-0.857-2.13,0.161c-1.421,1.019-3.256,2.667-5.507,4.945c-2.251,2.278-4.784,4.998-7.598,8.16
		c-2.813,3.163-5.642,6.405-8.482,9.728c-2.841,3.324-5.535,6.566-8.08,9.728c-2.546,3.163-4.65,5.869-6.311,8.12
		c-0.644,0.858-1.22,1.622-1.729,2.292c-0.51,0.67-0.979,1.246-1.407,1.729l-2.653,4.904c-1.394,2.627-2.761,5.213-4.1,7.759
		c-1.34,2.546-2.52,4.972-3.538,7.276c-1.019,2.305-1.836,4.461-2.452,6.471c-0.617,2.011-0.925,3.767-0.925,5.267
		c0,1.77,0.093,2.975,0.281,3.618s0.415,1.181,0.684,1.606c0.161,0.377,0.334,0.765,0.522,1.166
		c0.187,0.402,0.281,0.925,0.281,1.568c0,1.018-0.309,1.781-0.924,2.291c-0.617,0.508-1.435,0.764-2.452,0.764
		c-0.912,0-1.943-0.295-3.095-0.885c-1.153-0.589-2.251-1.514-3.296-2.772s-1.93-2.867-2.653-4.824
		c-0.723-1.955-1.085-4.272-1.085-6.954c0-1.5,0.334-3.349,1.005-5.548c0.669-2.197,1.568-4.623,2.693-7.275
		c1.125-2.653,2.398-5.479,3.819-8.482c1.419-3.001,2.907-6.056,4.462-9.166c1.608-3.216,3.176-6.404,4.703-9.567
		c1.528-3.162,2.895-6.163,4.1-9.004c1.206-2.84,2.171-5.439,2.895-7.799c0.724-2.358,1.085-4.341,1.085-5.949
		c0-2.037-0.832-3.055-2.492-3.055c-2.573,0-5.307,0.777-8.201,2.332c-2.895,1.555-5.776,3.618-8.643,6.19
		c-2.868,2.573-5.615,5.495-8.241,8.763c-2.625,3.27-4.944,6.621-6.955,10.05c-2.01,3.431-3.618,6.793-4.824,10.09
		s-1.809,6.258-1.809,8.884c0,2.573,0.121,4.731,0.362,6.472c0.241,1.742,0.55,3.189,0.925,4.341
		c0.375,1.154,0.751,2.078,1.125,2.774c0.375,0.697,0.724,1.233,1.045,1.608c0.269,0.43,0.51,0.844,0.724,1.246
		c0.215,0.401,0.322,0.844,0.322,1.326c0,0.643-0.348,1.193-1.045,1.648c-0.696,0.455-1.58,0.684-2.653,0.684
		c-1.178,0-2.613-0.309-4.301-0.926c-1.688-0.615-3.309-1.754-4.864-3.416c-1.554-1.661-2.88-3.952-3.979-6.874
		c-1.098-2.921-1.648-6.659-1.648-11.216c0-3.805,0.737-7.65,2.211-11.537c1.475-3.886,3.497-7.65,6.07-11.296
		c2.573-3.645,5.602-7.047,9.085-10.21c3.485-3.162,7.263-5.922,11.336-8.281c4.073-2.358,8.321-4.221,12.743-5.588
		c4.422-1.367,8.856-2.05,13.306-2.05c2.036,0,3.738,0.309,5.105,0.925c1.367,0.617,2.479,1.407,3.336,2.372
		c0.857,0.965,1.5,2.05,1.93,3.256c0.428,1.206,0.736,2.385,0.924,3.537c0.188,1.153,0.294,2.211,0.322,3.176
		c0.026,0.965,0.04,1.688,0.04,2.171c0,1.019-0.094,2.078-0.281,3.176c-0.188,1.099-0.442,2.265-0.764,3.497
		c2.09-2.519,4.287-5.051,6.592-7.598c2.304-2.545,4.609-4.997,6.915-7.356c2.304-2.358,4.583-4.569,6.833-6.633
		c2.251-2.063,4.368-3.859,6.352-5.387c1.982-1.527,3.819-2.733,5.507-3.618c1.688-0.885,3.122-1.327,4.301-1.327
		c1.822,0,3.377,0.295,4.663,0.884c1.287,0.59,2.304,1.38,3.055,2.372c0.75,0.993,1.299,2.118,1.648,3.377
		c0.348,1.26,0.523,2.56,0.523,3.899c0,0.965-0.322,2.292-0.965,3.98s-1.487,3.618-2.533,5.789c-1.045,2.17-2.279,4.53-3.698,7.075
		c-1.421,2.546-2.882,5.159-4.381,7.839c-2.305,4.128-4.717,8.522-7.236,13.185c-2.52,4.663-4.838,9.286-6.955,13.869
		c-2.118,4.582-3.859,8.964-5.226,13.145c-1.367,4.181-2.05,7.826-2.05,10.934c0,4.396,0.669,7.987,2.01,10.772
		c1.339,2.787,2.975,4.984,4.904,6.594c1.93,1.607,3.939,2.72,6.03,3.337c2.09,0.614,3.886,0.924,5.387,0.924
		c2.84,0,4.971-0.43,6.392-1.286c1.419-0.857,2.344-1.688,2.774-2.492L270.423,106.145z"/>
	<path fill="#660142" d="M291.165,60.56c0.213-0.374,0.615-0.563,1.206-0.563c0.589,0,1.192,0.121,1.809,0.362
		c0.616,0.241,1.125,0.577,1.528,1.005c0.402,0.43,0.522,0.858,0.362,1.286c-0.537,1.18-1.381,2.854-2.533,5.025
		c-1.153,2.171-2.506,4.53-4.06,7.075c-1.555,2.547-3.27,5.159-5.146,7.838c-1.876,2.682-3.819,5.105-5.829,7.277
		c-2.01,2.17-4.074,3.953-6.19,5.346c-2.118,1.395-4.195,2.09-6.231,2.09c-2.68,0-4.864-0.977-6.552-2.934s-2.533-4.596-2.533-7.92
		c0-1.178,0.269-2.68,0.804-4.502c0.536-1.821,1.233-3.791,2.09-5.909c0.858-2.116,1.809-4.313,2.854-6.593
		c1.045-2.277,2.05-4.462,3.015-6.552c1.287-2.733,2.384-5.118,3.296-7.155c0.911-2.036,1.367-3.349,1.367-3.939
		c0-0.856,0.535-1.246,1.608-1.166c1.072,0.08,2.251,0.47,3.538,1.166c1.286,0.697,2.465,1.608,3.538,2.733
		c1.071,1.126,1.608,2.279,1.608,3.458c0,0.321-0.134,0.858-0.402,1.608c-0.269,0.751-0.617,1.622-1.045,2.613
		c-0.43,0.992-0.912,2.063-1.447,3.216c-0.536,1.153-1.073,2.291-1.608,3.417c-0.858,1.823-1.782,3.778-2.773,5.868
		c-0.993,2.091-1.903,4.102-2.733,6.03c-0.832,1.93-1.515,3.712-2.05,5.347c-0.537,1.636-0.804,2.908-0.804,3.817
		c0,0.482,0.081,0.726,0.241,0.726c1.178,0,2.505-0.63,3.98-1.891c1.473-1.259,3.001-2.854,4.583-4.783
		c1.58-1.93,3.148-4.072,4.703-6.432c1.554-2.357,2.987-4.648,4.301-6.874c1.313-2.224,2.452-4.233,3.417-6.03
		c0.965-1.794,1.661-3.121,2.09-3.979V60.56H291.165z M277.739,45.284c-0.965,0-1.676-0.362-2.131-1.085
		c-0.456-0.723-0.683-1.648-0.683-2.773c0-1.018,0.187-2.183,0.563-3.497c0.375-1.313,0.871-2.559,1.487-3.739
		c0.616-1.178,1.313-2.171,2.09-2.975c0.776-0.804,1.568-1.206,2.372-1.206c1.018,0,1.996,0.148,2.935,0.442
		c0.937,0.295,1.769,0.724,2.492,1.286c0.724,0.563,1.299,1.26,1.729,2.09c0.428,0.832,0.643,1.783,0.643,2.854
		c0,0.965-0.281,1.958-0.844,2.975c-0.563,1.019-1.354,1.943-2.372,2.773c-1.019,0.832-2.239,1.515-3.658,2.05
		C280.94,45.017,279.399,45.284,277.739,45.284z"/>
	<path fill="#660142" d="M333.616,60.881c0.535-0.965,1.178-1.594,1.928-1.889c0.75-0.294,1.42-0.322,2.012-0.081
		c0.588,0.241,1.018,0.711,1.285,1.407c0.27,0.697,0.16,1.555-0.322,2.573c-0.533,1.073-1.313,2.667-2.33,4.784
		c-1.02,2.118-2.211,4.462-3.576,7.034c-1.367,2.573-2.883,5.187-4.543,7.84c-1.662,2.652-3.393,5.078-5.188,7.275
		c-1.797,2.197-3.617,3.994-5.467,5.387c-1.85,1.395-3.631,2.09-5.346,2.09c-2.626,0-4.798-0.977-6.513-2.934
		c-1.716-1.957-2.572-4.596-2.572-7.92c0-1.125,0.227-2.504,0.683-4.141c0.455-1.634,1.058-3.416,1.809-5.346
		c0.75-1.93,1.595-3.939,2.533-6.029c0.938-2.091,1.861-4.127,2.773-6.111c-1.77,2.091-3.632,4.315-5.587,6.674
		c-1.958,2.359-3.808,4.676-5.547,6.954c-1.743,2.278-3.285,4.422-4.624,6.432c-1.34,2.011-2.332,3.687-2.975,5.024
		c-0.054,0.27-0.094,0.51-0.121,0.725c-0.028,0.215-0.04,0.375-0.04,0.482l0.161,0.643c0.053,0.16,0.08,0.35,0.08,0.563
		c0,0.216,0.027,0.402,0.081,0.563V92.8c0.161,0.644,0.294,1.234,0.402,1.771c0.107,0.535,0.107,1.004,0,1.406
		c-0.108,0.401-0.375,0.724-0.804,0.965c-0.43,0.24-1.073,0.36-1.93,0.36c-1.019,0-2.064-0.254-3.135-0.764
		c-1.072-0.509-2.05-1.231-2.935-2.17c-0.885-0.938-1.621-2.052-2.211-3.337c-0.589-1.286-0.884-2.733-0.884-4.342
		c0-1.446,0.215-2.987,0.643-4.623c0.43-1.635,0.992-3.323,1.688-5.065c0.697-1.741,1.487-3.497,2.372-5.267
		c0.884-1.768,1.781-3.537,2.693-5.306c1.5-2.947,2.84-5.694,4.02-8.241c1.179-2.545,1.769-4.623,1.769-6.23
		c0-0.857,0.589-1.313,1.769-1.367c1.178-0.053,2.492,0.241,3.939,0.885c1.446,0.643,2.76,1.567,3.938,2.773
		c1.178,1.206,1.77,2.613,1.77,4.221c0,0.751-0.201,1.688-0.604,2.814c-0.402,1.125-0.925,2.386-1.568,3.779
		c1.661-1.983,3.31-3.912,4.944-5.789c1.634-1.875,3.162-3.55,4.583-5.025c1.418-1.474,2.667-2.666,3.739-3.578
		c1.072-0.911,1.85-1.367,2.332-1.367c0.105,0,0.268,0,0.48,0c0.215,0,0.43,0.054,0.645,0.161c0.645,0.215,1.367,0.603,2.172,1.166
		c0.803,0.563,1.553,1.233,2.25,2.01c0.697,0.778,1.271,1.636,1.729,2.573c0.455,0.938,0.684,1.889,0.684,2.854
		c0,0.751-0.441,2.104-1.326,4.06c-0.885,1.957-1.943,4.22-3.176,6.793c-0.912,1.877-1.863,3.847-2.854,5.909
		c-0.992,2.064-1.891,4.048-2.693,5.949c-0.805,1.903-1.475,3.672-2.01,5.307c-0.537,1.637-0.805,2.936-0.805,3.898
		c0,0.43,0.053,0.645,0.16,0.645c0.805,0,1.77-0.563,2.895-1.689c1.127-1.125,2.346-2.599,3.658-4.422
		c1.313-1.819,2.641-3.845,3.98-6.068c1.338-2.224,2.6-4.435,3.777-6.633c1.18-2.197,2.236-4.247,3.176-6.15
		c0.938-1.901,1.648-3.443,2.131-4.623v-0.162H333.616z"/>
	<path fill="#660142" d="M377.028,60.962c0.215-0.482,0.631-0.724,1.246-0.724s1.207,0.161,1.77,0.482
		c0.564,0.321,1.031,0.724,1.406,1.206c0.375,0.482,0.455,0.964,0.242,1.447c-0.375,0.751-0.926,1.769-1.648,3.055
		c-0.723,1.286-1.621,2.707-2.693,4.261c-1.072,1.556-2.318,3.15-3.736,4.784c-1.422,1.636-2.977,3.163-4.664,4.583
		c-1.689,1.42-3.525,2.652-5.506,3.697c-1.984,1.045-4.104,1.729-6.354,2.052c-2.412,3.377-5.145,6.137-8.201,8.28
		c-3.055,2.144-6.219,3.215-9.484,3.215c-1.771,0-3.498-0.348-5.188-1.045c-1.688-0.694-3.188-1.729-4.502-3.096
		c-1.313-1.366-2.373-3.066-3.176-5.104c-0.805-2.035-1.207-4.422-1.207-7.155c0-2.572,0.496-5.212,1.488-7.92
		c0.992-2.705,2.145-5.186,3.457-7.436c1.313-2.251,2.652-4.101,4.02-5.548c1.369-1.447,2.424-2.171,3.176-2.171
		c0.535,0,1.125,0.054,1.77,0.161c0.645,0.108,1.26,0.241,1.85,0.402c0.965-1.287,1.996-2.492,3.096-3.618
		c1.098-1.125,2.277-2.103,3.537-2.934s2.559-1.5,3.9-2.01c1.338-0.509,2.705-0.764,4.1-0.764c2.035,0,3.711,0.229,5.025,0.684
		c1.313,0.456,2.357,1.099,3.135,1.929c0.775,0.832,1.313,1.823,1.607,2.975c0.295,1.153,0.441,2.399,0.441,3.739
		c0,7.022-1.582,13.748-4.742,20.179c1.93-1.071,3.766-2.438,5.508-4.1c1.74-1.661,3.309-3.35,4.703-5.065
		c1.393-1.714,2.57-3.349,3.537-4.904C375.903,62.945,376.598,61.766,377.028,60.962z M339.643,91.111
		c1.875,0,3.631-0.496,5.268-1.488c1.633-0.99,3.176-2.344,4.623-4.061c-2.039-0.535-3.955-1.353-5.75-2.452
		c-1.795-1.098-3.336-2.372-4.623-3.818c-0.697,1.661-1.273,3.27-1.729,4.823c-0.455,1.556-0.684,2.922-0.684,4.101
		c0,0.912,0.215,1.621,0.645,2.131C337.821,90.857,338.571,91.111,339.643,91.111z M348.969,75.916c0,1.233,0.295,2.278,0.885,3.135
		c0.59,0.858,1.66,1.395,3.217,1.608c1.07-1.821,2.035-3.725,2.895-5.708c0.855-1.982,1.58-3.926,2.17-5.829
		c0.59-1.901,1.045-3.725,1.367-5.467c0.32-1.741,0.482-3.256,0.482-4.542c0-2.143-0.27-3.216-0.805-3.216
		c-0.537,0-1.367,0.683-2.492,2.05c-1.125,1.367-2.266,3.069-3.418,5.105c-1.152,2.038-2.156,4.208-3.014,6.512
		C349.399,71.869,348.969,73.986,348.969,75.916z"/>
	<path fill="#660142" d="M419.239,60.881c0.535-0.965,1.178-1.594,1.928-1.889c0.75-0.294,1.42-0.322,2.012-0.081
		c0.588,0.241,1.018,0.711,1.285,1.407c0.27,0.697,0.16,1.555-0.322,2.573c-0.533,1.073-1.313,2.667-2.33,4.784
		c-1.02,2.118-2.211,4.462-3.576,7.034c-1.367,2.573-2.883,5.187-4.543,7.84c-1.662,2.652-3.393,5.078-5.188,7.275
		c-1.797,2.197-3.617,3.994-5.467,5.387c-1.85,1.395-3.631,2.09-5.346,2.09c-2.627,0-4.799-0.977-6.514-2.934
		s-2.572-4.596-2.572-7.92c0-1.125,0.229-2.504,0.684-4.141c0.455-1.634,1.059-3.416,1.809-5.346s1.596-3.939,2.533-6.029
		c0.939-2.091,1.861-4.127,2.773-6.111c-1.77,2.091-3.631,4.315-5.588,6.674c-1.957,2.359-3.807,4.676-5.547,6.954
		c-1.742,2.278-3.283,4.422-4.623,6.432c-1.34,2.011-2.332,3.687-2.975,5.024c-0.055,0.27-0.094,0.51-0.121,0.725
		s-0.039,0.375-0.039,0.482l0.16,0.643c0.053,0.16,0.08,0.35,0.08,0.563c0,0.216,0.027,0.402,0.08,0.563V92.8
		c0.16,0.644,0.295,1.234,0.402,1.771c0.105,0.535,0.105,1.004,0,1.406c-0.107,0.401-0.375,0.724-0.805,0.965
		c-0.43,0.24-1.072,0.36-1.93,0.36c-1.02,0-2.064-0.254-3.137-0.764c-1.07-0.509-2.049-1.231-2.934-2.17s-1.621-2.052-2.211-3.337
		c-0.59-1.286-0.885-2.733-0.885-4.342c0-1.446,0.215-2.987,0.643-4.623c0.43-1.635,0.992-3.323,1.689-5.065
		c0.697-1.741,1.486-3.497,2.371-5.267c0.885-1.768,1.781-3.537,2.691-5.306c1.5-2.947,2.842-5.694,4.021-8.241
		c1.178-2.545,1.77-4.623,1.77-6.23c0-0.857,0.588-1.313,1.768-1.367c1.18-0.053,2.492,0.241,3.939,0.885
		c1.447,0.643,2.76,1.567,3.939,2.773c1.178,1.206,1.77,2.613,1.77,4.221c0,0.751-0.201,1.688-0.604,2.814
		c-0.404,1.126-0.924,2.386-1.568,3.779c1.662-1.983,3.311-3.912,4.945-5.789c1.635-1.875,3.162-3.55,4.582-5.025
		c1.42-1.474,2.666-2.666,3.738-3.578c1.07-0.911,1.85-1.367,2.332-1.367c0.105,0,0.268,0,0.48,0c0.215,0,0.43,0.054,0.645,0.161
		c0.645,0.215,1.365,0.603,2.172,1.166c0.803,0.563,1.553,1.233,2.25,2.01c0.695,0.778,1.271,1.636,1.729,2.573
		c0.455,0.938,0.684,1.889,0.684,2.854c0,0.751-0.441,2.104-1.326,4.06c-0.885,1.957-1.943,4.22-3.176,6.793
		c-0.912,1.877-1.863,3.847-2.854,5.909c-0.992,2.064-1.891,4.048-2.693,5.949c-0.805,1.903-1.475,3.672-2.01,5.307
		c-0.537,1.637-0.805,2.936-0.805,3.898c0,0.43,0.053,0.645,0.16,0.645c0.805,0,1.77-0.563,2.895-1.689
		c1.127-1.125,2.346-2.599,3.658-4.422c1.313-1.819,2.641-3.845,3.98-6.068c1.338-2.224,2.6-4.435,3.777-6.633
		c1.18-2.197,2.236-4.247,3.176-6.15c0.938-1.901,1.648-3.443,2.131-4.623v-0.162H419.239z"/>
</g>
<circle fill="#660142" cx="13.272" cy="167.534" r="10.272"/>
<circle fill="#660142" cx="33.817" cy="167.534" r="10.272"/>
<circle fill="#660142" cx="54.362" cy="167.534" r="10.272"/>
<circle fill="#660142" cx="74.907" cy="167.534" r="10.272"/>
<circle fill="#660142" cx="95.452" cy="167.534" r="10.273"/>
<circle fill="#660142" cx="115.998" cy="167.534" r="10.272"/>
<circle fill="#660142" cx="136.542" cy="167.534" r="10.272"/>
<circle fill="#660142" cx="157.088" cy="167.534" r="10.273"/>
<circle fill="#660142" cx="177.633" cy="167.534" r="10.273"/>
<circle fill="#660142" cx="198.178" cy="167.534" r="10.272"/>
<circle fill="#660142" cx="218.723" cy="167.534" r="10.272"/>
<circle fill="#660142" cx="239.268" cy="167.534" r="10.272"/>
<circle fill="#660142" cx="259.813" cy="167.534" r="10.273"/>
<circle fill="#660142" cx="280.358" cy="167.534" r="10.272"/>
<circle fill="#660142" cx="300.903" cy="167.534" r="10.272"/>
<circle fill="#660142" cx="321.448" cy="167.534" r="10.273"/>
<circle fill="#660142" cx="341.995" cy="167.534" r="10.272"/>
<circle fill="#660142" cx="362.54" cy="167.534" r="10.272"/>
<circle fill="#660142" cx="383.083" cy="167.534" r="10.272"/>
<circle fill="#660142" cx="403.627" cy="167.534" r="10.272"/>
<circle fill="#660142" cx="424.172" cy="167.534" r="10.272"/>
<circle fill="#660142" cx="444.717" cy="167.534" r="10.272"/>
<circle fill="#660142" cx="465.262" cy="167.534" r="10.272"/>
<circle fill="#660142" cx="485.807" cy="167.534" r="10.272"/>
<circle fill="#660142" cx="506.352" cy="167.534" r="10.272"/>
<circle fill="#660142" cx="526.899" cy="167.534" r="10.273"/>
<circle fill="#660142" cx="547.444" cy="167.534" r="10.272"/>
<circle fill="#660142" cx="567.989" cy="167.534" r="10.273"/>
<circle fill="#660142" cx="588.536" cy="167.534" r="10.272"/>
<circle fill="#660142" cx="609.081" cy="167.534" r="10.272"/>
</svg>
