<?xml version="1.0" encoding="utf-8"?>
<!-- Generator: Adobe Illustrator 16.0.0, SVG Export Plug-In . SVG Version: 6.00 Build 0)  -->
<!DOCTYPE svg PUBLIC "-//W3C//DTD SVG 1.1//EN" "http://www.w3.org/Graphics/SVG/1.1/DTD/svg11.dtd">
<svg version="1.1" id="Layer_1" xmlns="http://www.w3.org/2000/svg" xmlns:xlink="http://www.w3.org/1999/xlink" x="0px" y="0px"
	 width="617.95px" height="22.68px" viewBox="0 0 617.95 22.68" enable-background="new 0 0 617.95 22.68" xml:space="preserve">
<circle fill="#661144" cx="11.272" cy="11.272" r="10.272"/>
<circle fill="#661144" cx="31.817" cy="11.272" r="10.272"/>
<circle fill="#661144" cx="52.362" cy="11.272" r="10.272"/>
<circle fill="#661144" cx="72.907" cy="11.272" r="10.272"/>
<circle fill="#661144" cx="93.452" cy="11.272" r="10.273"/>
<circle fill="#661144" cx="113.998" cy="11.272" r="10.272"/>
<circle fill="#661144" cx="134.542" cy="11.272" r="10.272"/>
<circle fill="#661144" cx="155.088" cy="11.272" r="10.273"/>
<circle fill="#661144" cx="175.633" cy="11.272" r="10.273"/>
<circle fill="#661144" cx="196.178" cy="11.272" r="10.272"/>
<circle fill="#661144" cx="216.723" cy="11.272" r="10.272"/>
<circle fill="#661144" cx="237.268" cy="11.272" r="10.272"/>
<circle fill="#661144" cx="257.813" cy="11.272" r="10.273"/>
<circle fill="#661144" cx="278.358" cy="11.272" r="10.272"/>
<circle fill="#661144" cx="298.903" cy="11.272" r="10.272"/>
<circle fill="#661144" cx="319.448" cy="11.272" r="10.272"/>
<circle fill="#661144" cx="339.993" cy="11.272" r="10.272"/>
<circle fill="#661144" cx="360.538" cy="11.272" r="10.272"/>
<circle fill="#661144" cx="381.083" cy="11.272" r="10.272"/>
<circle fill="#661144" cx="401.628" cy="11.272" r="10.272"/>
<circle fill="#661144" cx="422.173" cy="11.272" r="10.272"/>
<circle fill="#661144" cx="442.718" cy="11.272" r="10.272"/>
<circle fill="#661144" cx="463.263" cy="11.272" r="10.272"/>
<circle fill="#661144" cx="483.808" cy="11.272" r="10.272"/>
<circle fill="#661144" cx="504.353" cy="11.272" r="10.272"/>
<circle fill="#661144" cx="524.898" cy="11.272" r="10.273"/>
<circle fill="#661144" cx="545.444" cy="11.272" r="10.272"/>
<circle fill="#661144" cx="565.989" cy="11.272" r="10.272"/>
<circle fill="#661144" cx="586.534" cy="11.272" r="10.272"/>
<circle fill="#661144" cx="607.079" cy="11.272" r="10.272"/>
</svg>
